<svg width="98" height="95" viewBox="0 0 98 95" fill="none" xmlns="http://www.w3.org/2000/svg">
<circle cx="47.5" cy="47.5" r="47.5" fill="#2B73FF"/>
<path d="M16.35 50V30.68H26.97C28.93 30.68 30.42 31.14 31.44 32.06C32.46 32.98 32.97 34.3 32.97 36.02C32.97 37.02 32.78 37.86 32.4 38.54C32.04 39.22 31.56 39.76 30.96 40.16C31.78 40.48 32.43 40.95 32.91 41.57C33.41 42.17 33.66 43.07 33.66 44.27C33.66 46.09 33.1 47.5 31.98 48.5C30.86 49.5 29.27 50 27.21 50H16.35ZM21.78 38.39H25.44C26.82 38.39 27.51 37.77 27.51 36.53C27.51 35.91 27.34 35.44 27 35.12C26.68 34.8 26.11 34.64 25.29 34.64H21.78V38.39ZM21.78 46.07H25.68C26.44 46.07 27 45.91 27.36 45.59C27.72 45.27 27.9 44.74 27.9 44C27.9 43.38 27.72 42.91 27.36 42.59C27 42.27 26.4 42.11 25.56 42.11H21.78V46.07ZM44.7738 50.3C42.9738 50.3 41.3838 50.01 40.0038 49.43C38.6438 48.83 37.5738 47.96 36.7938 46.82C36.0138 45.66 35.6238 44.24 35.6238 42.56V30.68H41.2638V41.96C41.2638 44.32 42.4338 45.5 44.7738 45.5C45.8938 45.5 46.7538 45.21 47.3538 44.63C47.9538 44.05 48.2538 43.16 48.2538 41.96V30.68H53.8938V42.56C53.8938 44.24 53.5038 45.66 52.7238 46.82C51.9638 47.96 50.8938 48.83 49.5138 49.43C48.1538 50.01 46.5738 50.3 44.7738 50.3ZM56.4574 50V30.68H62.0974V45.68H70.7974V50H56.4574ZM72.307 50V30.68H77.947V45.68H86.647V50H72.307ZM16.35 70V50.68H30.99V55H21.99V58.15H29.88V62.53H21.99V65.68H30.99V70H16.35ZM39.1455 70V62.92L32.1855 50.68H38.0655L41.9655 57.97L45.8655 50.68H51.7455L44.7855 62.92V70H39.1455ZM53.2641 70V50.68H67.9041V55H58.9041V58.15H66.7941V62.53H58.9041V65.68H67.9041V70H53.2641Z" fill="white"/>
</svg>
